<svg xmlns="http://www.w3.org/2000/svg" viewBox="0 0 960 440" font-family="'Segoe UI','Noto Sans TC',system-ui,sans-serif">
  <defs><filter id="s"><feDropShadow dx="0" dy="1" stdDeviation="2" flood-opacity=".06"/></filter></defs>
  <rect width="960" height="440" rx="12" fill="#f8f9fa"/>
  <!-- Nav -->
  <rect width="960" height="44" rx="12" fill="#fff"/><rect y="40" width="960" height="4" fill="#fff"/>
  <text x="24" y="28" font-size="14" font-weight="700" fill="#3b82f6" font-family="monospace">📈 Trading System</text>
  <line x1="0" y1="44" x2="960" y2="44" stroke="#e5e7eb"/>
  <rect y="44" width="960" height="36" fill="#fff"/>
  <text x="472" y="68" font-size="13" font-weight="600" fill="#111">主題搜尋</text>
  <line x1="472" y1="76" x2="540" y2="76" stroke="#111" stroke-width="2"/>
  <line x1="0" y1="80" x2="960" y2="80" stroke="#e5e7eb"/>
  <!-- Search bar -->
  <g transform="translate(20,96)">
    <rect width="920" height="110" rx="8" fill="#fff" filter="url(#s)" stroke="#e5e7eb" stroke-width=".5"/>
    <rect x="14" y="12" width="300" height="30" rx="4" fill="#fff" stroke="#e5e7eb"/>
    <text x="24" y="32" font-size="11" fill="#9ca3af">輸入主題關鍵字（如 CoWoS、液冷散熱）</text>
    <rect x="322" y="12" width="50" height="30" rx="4" fill="#3b82f6"/>
    <text x="334" y="32" font-size="12" fill="#fff" font-weight="500">搜尋</text>
    <text x="382" y="32" font-size="10" fill="#9ca3af">或點擊下方標籤</text>
    <!-- Keyword cloud -->
    <g transform="translate(14,52)">
      <rect width="44" height="22" rx="11" fill="rgba(59,130,246,.1)" stroke="rgba(59,130,246,.2)"/><text x="8" y="15" font-size="10" fill="#3b82f6">台積電</text>
      <rect x="50" width="24" height="22" rx="11" fill="rgba(59,130,246,.1)" stroke="rgba(59,130,246,.2)"/><text x="58" y="15" font-size="10" fill="#3b82f6">AI</text>
      <rect x="80" width="52" height="22" rx="11" fill="rgba(59,130,246,.1)" stroke="rgba(59,130,246,.2)"/><text x="88" y="15" font-size="10" fill="#3b82f6">AI 伺服器</text>
      <rect x="138" width="38" height="22" rx="11" fill="rgba(59,130,246,.1)" stroke="rgba(59,130,246,.2)"/><text x="146" y="15" font-size="10" fill="#3b82f6">半導體</text>
      <rect x="182" width="38" height="22" rx="11" fill="rgba(59,130,246,.1)" stroke="rgba(59,130,246,.2)"/><text x="190" y="15" font-size="10" fill="#3b82f6">電動車</text>
      <rect x="226" width="24" height="22" rx="11" fill="rgba(59,130,246,.1)" stroke="rgba(59,130,246,.2)"/><text x="234" y="15" font-size="10" fill="#3b82f6">5G</text>
      <rect x="256" width="30" height="22" rx="11" fill="rgba(59,130,246,.1)" stroke="rgba(59,130,246,.2)"/><text x="264" y="15" font-size="10" fill="#3b82f6">PCB</text>
      <rect x="292" width="44" height="22" rx="11" fill="rgba(59,130,246,.1)" stroke="rgba(59,130,246,.2)"/><text x="300" y="15" font-size="10" fill="#3b82f6">NVIDIA</text>
      <rect x="342" width="30" height="22" rx="11" fill="rgba(59,130,246,.1)" stroke="rgba(59,130,246,.2)"/><text x="350" y="15" font-size="10" fill="#3b82f6">Dell</text>
      <rect x="378" width="38" height="22" rx="11" fill="rgba(59,130,246,.1)" stroke="rgba(59,130,246,.2)"/><text x="386" y="15" font-size="10" fill="#3b82f6">Apple</text>
      <rect x="422" width="24" height="22" rx="11" fill="rgba(59,130,246,.1)" stroke="rgba(59,130,246,.2)"/><text x="430" y="15" font-size="10" fill="#3b82f6">HP</text>
      <rect x="452" width="34" height="22" rx="11" fill="rgba(59,130,246,.1)" stroke="rgba(59,130,246,.2)"/><text x="460" y="15" font-size="10" fill="#3b82f6">Intel</text>
      <rect x="492" width="30" height="22" rx="11" fill="rgba(59,130,246,.1)" stroke="rgba(59,130,246,.2)"/><text x="500" y="15" font-size="10" fill="#3b82f6">台電</text>
      <rect x="528" width="44" height="22" rx="11" fill="rgba(59,130,246,.1)" stroke="rgba(59,130,246,.2)"/><text x="536" y="15" font-size="10" fill="#3b82f6">CoWoS</text>
      <rect x="578" width="42" height="22" rx="11" fill="rgba(59,130,246,.1)" stroke="rgba(59,130,246,.2)"/><text x="586" y="15" font-size="10" fill="#3b82f6">散熱</text>
      <rect x="626" width="50" height="22" rx="11" fill="rgba(59,130,246,.1)" stroke="rgba(59,130,246,.2)"/><text x="634" y="15" font-size="10" fill="#3b82f6">Broadcom</text>
      <rect x="682" width="48" height="22" rx="11" fill="rgba(59,130,246,.1)" stroke="rgba(59,130,246,.2)"/><text x="690" y="15" font-size="10" fill="#3b82f6">MOSFET</text>
      <rect x="736" width="44" height="22" rx="11" fill="rgba(59,130,246,.1)" stroke="rgba(59,130,246,.2)"/><text x="744" y="15" font-size="10" fill="#3b82f6">Samsung</text>
      <rect x="786" width="34" height="22" rx="11" fill="rgba(59,130,246,.1)" stroke="rgba(59,130,246,.2)"/><text x="794" y="15" font-size="10" fill="#3b82f6">鴻海</text>
      <rect x="826" width="44" height="22" rx="11" fill="rgba(59,130,246,.1)" stroke="rgba(59,130,246,.2)"/><text x="834" y="15" font-size="10" fill="#3b82f6">資料中心</text>
    </g>
  </g>
  <!-- Search results -->
  <g transform="translate(20,222)">
    <text x="0" y="14" font-size="11" fill="#9ca3af">主題「CoWoS」：8 筆相關台股（點擊查看研究摘要）</text>
    <!-- Result cards -->
    <g transform="translate(0,26)">
      <rect width="220" height="100" rx="8" fill="#fff" filter="url(#s)" stroke="#e5e7eb" stroke-width=".5"/>
      <text x="14" y="24" font-size="14" font-weight="700" fill="#111" font-family="monospace">2330</text>
      <text x="62" y="24" font-size="11" fill="#6b7280">台積電</text>
      <text x="14" y="42" font-size="10" fill="#9ca3af">半導體</text>
      <g transform="translate(14,52)">
        <rect width="42" height="18" rx="9" fill="rgba(59,130,246,.1)" stroke="rgba(59,130,246,.15)"/><text x="6" y="13" font-size="9" fill="#3b82f6">CoWoS</text>
        <rect x="48" width="52" height="18" rx="9" fill="rgba(59,130,246,.1)" stroke="rgba(59,130,246,.15)"/><text x="54" y="13" font-size="9" fill="#3b82f6">先進封裝</text>
        <rect x="106" width="32" height="18" rx="9" fill="rgba(59,130,246,.1)" stroke="rgba(59,130,246,.15)"/><text x="112" y="13" font-size="9" fill="#3b82f6">晶圓</text>
      </g>
      <rect x="14" y="78" width="40" height="18" rx="4" fill="#f3f4f6"/>
      <text x="22" y="91" font-size="9" fill="#6b7280">研究</text>
    </g>
    <g transform="translate(235,26)">
      <rect width="220" height="100" rx="8" fill="#fff" filter="url(#s)" stroke="#e5e7eb" stroke-width=".5"/>
      <text x="14" y="24" font-size="14" font-weight="700" fill="#111" font-family="monospace">3711</text>
      <text x="62" y="24" font-size="11" fill="#6b7280">日月光投控</text>
      <text x="14" y="42" font-size="10" fill="#9ca3af">封測</text>
      <g transform="translate(14,52)">
        <rect width="42" height="18" rx="9" fill="rgba(59,130,246,.1)" stroke="rgba(59,130,246,.15)"/><text x="6" y="13" font-size="9" fill="#3b82f6">CoWoS</text>
        <rect x="48" width="34" height="18" rx="9" fill="rgba(59,130,246,.1)" stroke="rgba(59,130,246,.15)"/><text x="54" y="13" font-size="9" fill="#3b82f6">封測</text>
        <rect x="88" width="34" height="18" rx="9" fill="rgba(59,130,246,.1)" stroke="rgba(59,130,246,.15)"/><text x="94" y="13" font-size="9" fill="#3b82f6">SiP</text>
      </g>
      <rect x="14" y="78" width="40" height="18" rx="4" fill="#f3f4f6"/>
      <text x="22" y="91" font-size="9" fill="#6b7280">研究</text>
    </g>
    <g transform="translate(470,26)">
      <rect width="220" height="100" rx="8" fill="#fff" filter="url(#s)" stroke="#e5e7eb" stroke-width=".5"/>
      <text x="14" y="24" font-size="14" font-weight="700" fill="#111" font-family="monospace">6533</text>
      <text x="62" y="24" font-size="11" fill="#6b7280">晶心科</text>
      <text x="14" y="42" font-size="10" fill="#9ca3af">IC 設計</text>
      <g transform="translate(14,52)">
        <rect width="42" height="18" rx="9" fill="rgba(59,130,246,.1)" stroke="rgba(59,130,246,.15)"/><text x="6" y="13" font-size="9" fill="#3b82f6">CoWoS</text>
        <rect x="48" width="38" height="18" rx="9" fill="rgba(59,130,246,.1)" stroke="rgba(59,130,246,.15)"/><text x="54" y="13" font-size="9" fill="#3b82f6">RISC-V</text>
      </g>
      <rect x="14" y="78" width="40" height="18" rx="4" fill="#f3f4f6"/>
      <text x="22" y="91" font-size="9" fill="#6b7280">研究</text>
    </g>
    <g transform="translate(705,26)">
      <rect width="220" height="100" rx="8" fill="#fff" filter="url(#s)" stroke="#e5e7eb" stroke-width=".5"/>
      <text x="14" y="24" font-size="14" font-weight="700" fill="#111" font-family="monospace">3529</text>
      <text x="62" y="24" font-size="11" fill="#6b7280">力旺</text>
      <text x="14" y="42" font-size="10" fill="#9ca3af">IC 設計</text>
      <g transform="translate(14,52)">
        <rect width="42" height="18" rx="9" fill="rgba(59,130,246,.1)" stroke="rgba(59,130,246,.15)"/><text x="6" y="13" font-size="9" fill="#3b82f6">CoWoS</text>
        <rect x="48" width="28" height="18" rx="9" fill="rgba(59,130,246,.1)" stroke="rgba(59,130,246,.15)"/><text x="54" y="13" font-size="9" fill="#3b82f6">IP</text>
        <rect x="82" width="34" height="18" rx="9" fill="rgba(59,130,246,.1)" stroke="rgba(59,130,246,.15)"/><text x="88" y="13" font-size="9" fill="#3b82f6">NVM</text>
      </g>
      <rect x="14" y="78" width="40" height="18" rx="4" fill="#f3f4f6"/>
      <text x="22" y="91" font-size="9" fill="#6b7280">研究</text>
    </g>
  </g>
</svg>
