<svg xmlns="http://www.w3.org/2000/svg" viewBox="0 0 960 480" font-family="'Segoe UI','Noto Sans TC',system-ui,sans-serif">
  <defs><filter id="s"><feDropShadow dx="0" dy="1" stdDeviation="2" flood-opacity=".06"/></filter></defs>
  <rect width="960" height="480" rx="12" fill="#f8f9fa"/>
  <!-- Nav -->
  <rect width="960" height="44" rx="12" fill="#fff"/><rect y="40" width="960" height="4" fill="#fff"/>
  <text x="24" y="28" font-size="14" font-weight="700" fill="#3b82f6" font-family="monospace">📈 Trading System</text>
  <line x1="0" y1="44" x2="960" y2="44" stroke="#e5e7eb"/>
  <rect y="44" width="960" height="36" fill="#fff"/>
  <text x="108" y="68" font-size="13" font-weight="600" fill="#111">觀察名單</text>
  <line x1="108" y1="76" x2="184" y2="76" stroke="#111" stroke-width="2"/>
  <text x="24" y="68" font-size="13" fill="#9ca3af">持股戰情</text>
  <line x1="0" y1="80" x2="960" y2="80" stroke="#e5e7eb"/>
  <!-- Header -->
  <g transform="translate(20,96)">
    <text x="0" y="16" font-size="12" font-weight="600" fill="#111">觀察名單 3 檔</text>
    <rect x="820" y="0" width="44" height="26" rx="4" fill="#f3f4f6" stroke="#e5e7eb"/>
    <text x="828" y="18" font-size="10" fill="#6b7280">↻ 分析</text>
    <rect x="872" y="0" width="48" height="26" rx="4" fill="#111"/>
    <text x="880" y="18" font-size="10" fill="#fff" font-weight="500">+ 新增</text>
  </g>
  <!-- Watchlist card 1: 台積電 -->
  <g transform="translate(20,132)">
    <rect width="920" height="155" rx="10" fill="#fff" filter="url(#s)" stroke="#e5e7eb" stroke-width=".5"/>
    <!-- Header -->
    <text x="16" y="24" font-size="14" font-weight="700" fill="#111" font-family="monospace">2330</text>
    <text x="62" y="24" font-size="14" fill="#374151" font-weight="500">台積電</text>
    <rect x="870" y="8" width="26" height="20" rx="4" fill="#fef2f2"/>
    <text x="877" y="22" font-size="11" fill="#ef4444">✕</text>
    <!-- Trend section -->
    <text x="16" y="48" font-size="12" fill="#111" font-weight="600">🛡️ 趨勢</text>
    <text x="80" y="48" font-size="14" fill="#10b981" font-weight="700">5/6</text>
    <g transform="translate(16,56)">
      <rect width="56" height="20" rx="4" fill="#fff" stroke="#e5e7eb"/>
      <text x="6" y="14" font-size="9" fill="#6b7280">收盤</text>
      <text x="28" y="14" font-size="9" fill="#111" font-weight="600">1,898</text>
      <rect x="62" width="56" height="20" rx="4" fill="#fff" stroke="#e5e7eb"/>
      <text x="68" y="14" font-size="9" fill="#6b7280">ADX</text>
      <text x="86" y="14" font-size="9" fill="#10b981" font-weight="600">28.5</text>
      <rect x="124" width="66" height="20" rx="4" fill="#fff" stroke="#e5e7eb"/>
      <text x="130" y="14" font-size="9" fill="#6b7280">MACD</text>
      <text x="158" y="14" font-size="9" fill="#10b981" font-weight="600">+2.31</text>
      <rect x="196" width="56" height="20" rx="4" fill="#fff" stroke="#e5e7eb"/>
      <text x="202" y="14" font-size="9" fill="#6b7280">ATR</text>
      <text x="222" y="14" font-size="9" fill="#111" font-weight="600">42.3</text>
      <rect x="258" width="62" height="20" rx="4" fill="#fff" stroke="#e5e7eb"/>
      <text x="264" y="14" font-size="9" fill="#6b7280">量/均量</text>
      <text x="296" y="14" font-size="9" fill="#10b981" font-weight="600">1.8x</text>
    </g>
    <g transform="translate(16,82)">
      <rect width="40" height="16" rx="2" fill="#ecfdf5"/><text x="4" y="12" font-size="8" fill="#10b981">✓ 均線排列</text>
      <rect x="44" width="40" height="16" rx="2" fill="#ecfdf5"/><text x="48" y="12" font-size="8" fill="#10b981">✓ 三線齊揚</text>
      <rect x="88" width="40" height="16" rx="2" fill="#ecfdf5"/><text x="92" y="12" font-size="8" fill="#10b981">✓ ADX>25</text>
      <rect x="132" width="40" height="16" rx="2" fill="#ecfdf5"/><text x="136" y="12" font-size="8" fill="#10b981">✓ MACD紅</text>
      <rect x="176" width="30" height="16" rx="2" fill="#ecfdf5"/><text x="180" y="12" font-size="8" fill="#10b981">✓ 爆量</text>
      <rect x="210" width="32" height="16" rx="2" fill="#f3f4f6"/><text x="214" y="12" font-size="8" fill="#9ca3af">✗ 5穿20</text>
    </g>
    <!-- Fundamental section -->
    <text x="460" y="48" font-size="12" fill="#111" font-weight="600">📊 基本面</text>
    <text x="536" y="48" font-size="14" fill="#10b981" font-weight="700">4/5</text>
    <g transform="translate(460,56)">
      <rect width="52" height="20" rx="4" fill="#fff" stroke="#e5e7eb"/>
      <text x="6" y="14" font-size="9" fill="#6b7280">PE</text>
      <text x="22" y="14" font-size="9" fill="#111" font-weight="600">31.1</text>
      <rect x="58" width="52" height="20" rx="4" fill="#fff" stroke="#e5e7eb"/>
      <text x="64" y="14" font-size="9" fill="#6b7280">EPS</text>
      <text x="84" y="14" font-size="9" fill="#10b981" font-weight="600">66.17</text>
      <rect x="116" width="64" height="20" rx="4" fill="#fff" stroke="#e5e7eb"/>
      <text x="122" y="14" font-size="9" fill="#6b7280">預估EPS</text>
      <text x="160" y="14" font-size="9" fill="#10b981" font-weight="600">72.5</text>
      <rect x="186" width="48" height="20" rx="4" fill="#fff" stroke="#e5e7eb"/>
      <text x="192" y="14" font-size="9" fill="#6b7280">PB</text>
      <text x="206" y="14" font-size="9" fill="#111" font-weight="600">8.2</text>
      <rect x="240" width="64" height="20" rx="4" fill="#fff" stroke="#e5e7eb"/>
      <text x="246" y="14" font-size="9" fill="#6b7280">營收成長</text>
      <text x="286" y="14" font-size="9" fill="#10b981" font-weight="600">+33.9%</text>
    </g>
    <!-- Footer: news -->
    <line x1="16" y1="108" x2="904" y2="108" stroke="#f3f4f6"/>
    <text x="16" y="126" font-size="11" fill="#3b82f6" font-weight="500">📊 財報狗</text>
    <text x="90" y="126" font-size="10" fill="#6b7280">·</text>
    <text x="100" y="126" font-size="10" fill="#3b82f6">台積電法說會展望優於預期</text>
    <text x="310" y="126" font-size="9" fill="#9ca3af" font-family="monospace">2026-04-14</text>
    <text x="100" y="142" font-size="10" fill="#3b82f6">台積電 Q1 營收創新高</text>
    <text x="260" y="142" font-size="9" fill="#9ca3af" font-family="monospace">2026-04-13</text>
  </g>
  <!-- Watchlist card 2: 聯發科 -->
  <g transform="translate(20,300)">
    <rect width="920" height="80" rx="10" fill="#fff" filter="url(#s)" stroke="#e5e7eb" stroke-width=".5"/>
    <text x="16" y="24" font-size="14" font-weight="700" fill="#111" font-family="monospace">2454</text>
    <text x="62" y="24" font-size="14" fill="#374151" font-weight="500">聯發科</text>
    <text x="16" y="48" font-size="12" fill="#111" font-weight="600">🛡️ 趨勢</text>
    <text x="80" y="48" font-size="14" fill="#f59e0b" font-weight="700">3/6</text>
    <text x="460" y="48" font-size="12" fill="#111" font-weight="600">📊 基本面</text>
    <text x="536" y="48" font-size="14" fill="#10b981" font-weight="700">5/5</text>
    <text x="16" y="68" font-size="10" fill="#3b82f6">📊 財報狗</text>
    <text x="90" y="68" font-size="10" fill="#3b82f6">聯發科天璣新晶片搶攻旗艦市場</text>
    <rect x="870" y="8" width="26" height="20" rx="4" fill="#fef2f2"/>
    <text x="877" y="22" font-size="11" fill="#ef4444">✕</text>
  </g>
  <!-- Watchlist card 3: 鴻海 -->
  <g transform="translate(20,394)">
    <rect width="920" height="70" rx="10" fill="#fff" filter="url(#s)" stroke="#e5e7eb" stroke-width=".5"/>
    <text x="16" y="24" font-size="14" font-weight="700" fill="#111" font-family="monospace">2317</text>
    <text x="62" y="24" font-size="14" fill="#374151" font-weight="500">鴻海</text>
    <text x="16" y="48" font-size="12" fill="#111" font-weight="600">🛡️ 趨勢</text>
    <text x="80" y="48" font-size="14" fill="#ef4444" font-weight="700">1/6</text>
    <text x="460" y="48" font-size="12" fill="#111" font-weight="600">📊 基本面</text>
    <text x="536" y="48" font-size="14" fill="#f59e0b" font-weight="700">3/5</text>
    <rect x="870" y="8" width="26" height="20" rx="4" fill="#fef2f2"/>
    <text x="877" y="22" font-size="11" fill="#ef4444">✕</text>
  </g>
</svg>
